<svg version="1.1" id="Layer_1" xmlns="http://www.w3.org/2000/svg" xmlns:xlink="http://www.w3.org/1999/xlink" x="0px" y="0px"
	 width="100%" viewBox="0 0 1024 1024" enable-background="new 0 0 1024 1024" xml:space="preserve">
<path fill="#000000" opacity="1.000000" stroke="none" 
	d="
M440.592529,670.593994 
	C420.423676,668.452576 401.159454,664.328918 382.197174,658.451538 
	C367.106659,653.774231 361.693787,642.888245 359.562927,628.324768 
	C353.948120,589.950134 353.378723,551.392090 354.913910,512.804871 
	C355.976868,486.087341 361.876129,460.099548 371.286957,435.056885 
	C381.315460,408.370544 387.417572,380.727448 394.040192,353.061920 
	C407.699310,296.001831 443.143829,258.608002 500.888092,244.144363 
	C514.397949,240.760468 528.190796,240.832825 541.914551,244.103348 
	C565.064148,249.620148 578.909424,265.286896 588.348694,285.938904 
	C597.457825,305.868652 600.406372,326.765045 599.569763,348.598236 
	C598.673218,371.997498 597.901367,395.355377 600.980530,418.836487 
	C604.129150,442.847748 605.936035,467.018555 611.261292,490.726227 
	C614.744568,506.233673 619.864502,521.129211 627.263916,535.190491 
	C642.328247,563.817749 652.608154,594.098206 658.893127,625.779968 
	C659.409973,628.385193 659.906799,631.005676 660.195618,633.642822 
	C661.492798,645.484192 656.418945,654.105286 645.038574,658.979187 
	C633.812500,663.787048 621.793884,665.902649 610.006897,668.747620 
	C592.409119,672.995178 575.111389,678.618835 557.017395,680.637512 
	C543.217957,682.177002 529.426697,681.765198 515.686523,679.960266 
	C495.269135,677.278259 474.922729,674.045471 454.388550,672.284241 
	C449.924164,671.901428 445.484619,671.228821 440.592529,670.593994 
z"/>
<path fill="#000000" opacity="1.000000" stroke="none" 
	d="
M610.882324,687.666809 
	C620.823242,685.309753 630.351868,683.000854 639.882568,680.700867 
	C649.523010,678.374573 658.522705,674.513062 666.832031,669.133911 
	C670.921143,666.486755 675.238342,665.114136 680.069641,665.702515 
	C710.450012,669.402649 732.248230,684.208374 744.324036,717.190491 
	C747.143555,724.891479 744.523865,731.163391 738.770996,736.493408 
	C730.042603,744.580505 719.223999,748.384094 708.037170,751.246460 
	C696.872681,754.102966 685.403442,754.920410 673.924255,755.283752 
	C670.533447,755.391113 667.309753,755.779724 664.242676,757.261230 
	C638.119934,769.879456 611.043213,771.422485 583.008179,764.989929 
	C566.927307,761.300171 550.787659,761.770752 534.672424,766.184448 
	C510.208344,772.884705 485.198578,774.007690 459.941101,772.658875 
	C443.656067,771.789246 427.451019,770.393311 411.267120,768.452698 
	C385.536438,765.367188 359.990265,761.227844 334.662201,755.745544 
	C315.325287,751.560120 295.986298,747.361206 277.447357,740.252869 
	C272.152405,738.222717 267.111603,735.652588 262.647156,732.046326 
	C255.203232,726.033325 253.617462,719.512024 257.983795,710.884155 
	C263.380829,700.219482 271.701294,692.168274 281.380219,685.368103 
	C297.998383,673.692566 315.817505,664.508789 335.506165,659.231140 
	C339.969116,658.034912 344.736420,657.728271 348.278900,661.204468 
	C361.417908,674.097290 378.197937,678.652649 395.392181,682.442139 
	C417.000519,687.204346 438.784088,690.489441 460.910583,691.830750 
	C482.958344,693.167114 504.860260,696.036499 526.713928,699.361084 
	C546.586243,702.384277 566.161316,699.822571 585.429138,694.457092 
	C593.756104,692.138184 602.122498,689.960693 610.882324,687.666809 
z"/>
</svg>